<svg id="b79d62e6-6a91-419a-abe0-2fee915f56ec" data-name="Layer 1" xmlns="http://www.w3.org/2000/svg" viewBox="0 0 200 180"><path d="M55.21,24.56l2.29,6.09a1.22,1.22,0,0,0,.7.71l6.08,2.29a1.21,1.21,0,0,1,0,2.27L58.2,38.21a1.22,1.22,0,0,0-.7.71L55.21,45a1.21,1.21,0,0,1-2.27,0l-2.29-6.09a1.21,1.21,0,0,0-.71-.71l-6.07-2.29a1.21,1.21,0,0,1,0-2.27l6.07-2.29a1.21,1.21,0,0,0,.71-.71l2.29-6.09A1.21,1.21,0,0,1,55.21,24.56Z" style="fill:#ffc667"/><path d="M175.11,149.2l2.29,6.09a1.22,1.22,0,0,0,.7.71l6.08,2.29a1.21,1.21,0,0,1,0,2.27l-6.08,2.29a1.2,1.2,0,0,0-.7.71l-2.29,6.09a1.21,1.21,0,0,1-2.27,0l-2.29-6.09a1.2,1.2,0,0,0-.7-.71l-6.08-2.29a1.21,1.21,0,0,1,0-2.27l6.08-2.29a1.22,1.22,0,0,0,.7-.71l2.29-6.09A1.21,1.21,0,0,1,175.11,149.2Z" style="fill:#ffc667"/><path d="M130.79,24l1.41,3.76a.76.76,0,0,0,.44.44l3.75,1.41a.75.75,0,0,1,0,1.41l-3.75,1.41a.76.76,0,0,0-.44.44l-1.41,3.76a.75.75,0,0,1-1.4,0L128,32.83a.75.75,0,0,0-.43-.44L123.78,31a.75.75,0,0,1,0-1.41l3.76-1.41a.75.75,0,0,0,.43-.44L129.39,24A.75.75,0,0,1,130.79,24Z" style="fill:#ffc667"/><path d="M22.09,156.27l1.67,4.42a.87.87,0,0,0,.51.52l4.42,1.67a.88.88,0,0,1,0,1.65l-4.42,1.67a.83.83,0,0,0-.51.51l-1.67,4.43a.88.88,0,0,1-1.65,0l-1.66-4.43a.85.85,0,0,0-.52-.51l-4.42-1.67a.88.88,0,0,1,0-1.65l4.42-1.67a.89.89,0,0,0,.52-.52l1.66-4.42A.88.88,0,0,1,22.09,156.27Z" style="fill:#ffc667"/><path d="M92.15,146.59a103.82,103.82,0,0,1,45.14-71.17c11-7.2,23.19-12.22,35.33-17.18l20-8.2a4.86,4.86,0,0,1,6.66,3.89c4.25,34.89-11.16,71-36.72,95.35-13.76,13.12-31.54,23.88-50.67,26.34C92.38,178.13,89.76,163.42,92.15,146.59Z" style="fill:#81aa39"/><path d="M84.43,149.78A84.7,84.7,0,0,0,50.76,89.84c-8.61-6.34-18.35-11-28-15.54l-16.85-8a3.19,3.19,0,0,0-4.5,2.26C-4.06,97.13,7,127.68,27,148.9c10.64,11.28,24.65,20.83,40.12,23.66C82.87,175.46,85.65,163.6,84.43,149.78Z" style="fill:#81aa39"/><path d="M138.53,121.46s-37.44,36.13-44.61,44.91,3.94,18.91,11.6,10.45S143.34,126,143.34,126Z" style="fill:#fff"/><path d="M159,123.74c-6.13,8.45-14.89,9.24-21.5,4.43s-8.57-13.39-2.44-21.85,20.65-17.19,27.26-12.38S165.08,115.28,159,123.74Z" style="fill:#fff"/><path d="M35.32,96.58a2.58,2.58,0,0,0-.6,3.55l12.45,17.35a2.13,2.13,0,0,1-.5,2.93h0a2,2,0,0,1-2.9-.41L31.33,102.65a2.48,2.48,0,0,0-3.5-.49,2.58,2.58,0,0,0-.6,3.55l12.45,17.34a2.14,2.14,0,0,1-.5,2.94h0a2,2,0,0,1-2.89-.41L23.84,108.23a2.46,2.46,0,0,0-3.49-.49,2.56,2.56,0,0,0-.6,3.54l13.64,19,1.66,2.31a7.54,7.54,0,0,0,10.68,1.53l6.58-4.9a7.89,7.89,0,0,0,1.81-10.84l-1.66-2.31-13.64-19A2.47,2.47,0,0,0,35.32,96.58Z" style="fill:#fff"/><path d="M43.92,130.18S68,168.63,74.22,176.33s16.81,0,11-8.05-36.52-41.39-36.52-41.39Z" style="fill:#fff"/><path d="M103.19,1.05a2.88,2.88,0,0,0-4.55.13L89,14.28C83.47,21.85,77.89,29.48,73.88,38a74.33,74.33,0,0,0-1,60.28c2.68,6.23,6.07,11.46,10.45,13.35-.43-3.27-.71-6.58-.95-9.85a165.12,165.12,0,0,1,.25-26.87,151.49,151.49,0,0,1,4.59-25.63A95.6,95.6,0,0,1,97.6,25.1c.3-.52,1.05-.12.92.42C94.44,42,90.78,59,89.72,76a165.64,165.64,0,0,0,.26,24.3c.32,3.71.85,7.37,1.4,11a20,20,0,0,0,4.35-2.74c10.76-8.65,17.59-21.85,21.1-35C123.41,48.89,119.2,20.78,103.19,1.05Z" style="fill:#81aa39"/><path d="M149.07,44a28.1,28.1,0,0,0-17.14,7.1c-3.62,3.38-10.24,13.8-7.15,19.29.53-1.22,1.1-2.42,1.73-3.59a45.76,45.76,0,0,1,5.16-7.62,34,34,0,0,1,6.8-6.38c1.21-.85,2.45-1.65,3.73-2.38,1.08-.61,2.56-1.62,3.85-1.58.06,0,.11.07.07.12-.62,1-2,1.71-2.94,2.4a39.94,39.94,0,0,0-3.55,2.95,73,73,0,0,0-6,6.28,45.47,45.47,0,0,0-4.93,7.26,40.88,40.88,0,0,0-1.95,4.06h0c4.63,1,14.53-6.74,16.95-9.12a29.55,29.55,0,0,0,8.4-15.46A2.85,2.85,0,0,0,149.07,44Z" style="fill:#498828"/><path d="M52.6,68.49a72.87,72.87,0,0,0-4.78-6.89c-1.68-2.19-3.79-4.05-5.41-6.26-.16-.21,0-.6.31-.46,2.6,1.28,4.86,3.65,6.86,5.7A43.82,43.82,0,0,1,55.28,68a55.15,55.15,0,0,1,5.93,13c2.91-5.76-1.67-16.82-4.67-20.83A30.62,30.62,0,0,0,39,49.12a2.66,2.66,0,0,0-3.22,2.57,32,32,0,0,0,6,18.73c2.22,3.16,12,14.22,17,13A53.22,53.22,0,0,0,52.6,68.49Z" style="fill:#498828"/></svg>